# xmcd CD database file
#
# Track frame offsets:
#	150
#	29269
#	51068
#	66029
#	79055
#	99771
#	127567
#	141506
#	165230
#	174449
#	196406
#
# Disc length: 2733 seconds
#
# Revision: 0
# Processed by: cddbd v1.5.2PL0 Copyright (c) Steve Scherf et al.
# Submitted via: CDex 2.00
#
DISCID=800aab0b
DTITLE=Jason Rebello - Held
DYEAR=2016
DGENRE=Jazz
TTITLE0=Pearl
TTITLE1=Salad Days
TTITLE2=Tokyo Dream
TTITLE3=Held
TTITLE4=Blackbird 
TTITLE5=As the Dust Settles
TTITLE6=Thanks John
TTITLE7=Happy But For How Long
TTITLE8=Purple Sunflower
TTITLE9=Polzeath
TTITLE10=Dissolve
EXTD=YEAR: 2016
EXTT0=
EXTT1=
EXTT2=
EXTT3=
EXTT4=
EXTT5=
EXTT6=
EXTT7=
EXTT8=
EXTT9=
EXTT10=
PLAYORDER=
